PathFileType	4	(X/Y/Z)	/Users/itak/Documents/Research/Walk-IL/dataset/trc/00559_00009.trc
DataRate	CameraRate	NumFrames	NumMarkers	Units	OrigDataRate	OrigDataStartFrame	OrigNumFrames
100.000000	100.000000	4	53	mm	100.000000	84	337
Frame#	Time	RPSI			LPSI			L3			STRN			T10			C7			CLAV			RBAK			LBAK			LSHO			LUPA			LAEL			LAOL			LWTS			LWPS			LFRA			LIFD			LHPS			LHTS			RSHO			RUPA			RAEL			RAOL			RWTS			RWPS			RFRA			RIFD			RHTS			RHPS			RBHD			LFHD			RFHD			LBHD			LHIP			RHIP			RASI			LASI			LKNE			LTHI			LANK			LTIP			LTOE			LMT1			LMT5			LHEE			RKNE			RTHI			RANK			RTIP			RTOE			RMT1			RMT5			RHEE			
		X1	Y1	Z1	X2	Y2	Z2	X3	Y3	Z3	X4	Y4	Z4	X5	Y5	Z5	X6	Y6	Z6	X7	Y7	Z7	X8	Y8	Z8	X9	Y9	Z9	X10	Y10	Z10	X11	Y11	Z11	X12	Y12	Z12	X13	Y13	Z13	X14	Y14	Z14	X15	Y15	Z15	X16	Y16	Z16	X17	Y17	Z17	X18	Y18	Z18	X19	Y19	Z19	X20	Y20	Z20	X21	Y21	Z21	X22	Y22	Z22	X23	Y23	Z23	X24	Y24	Z24	X25	Y25	Z25	X26	Y26	Z26	X27	Y27	Z27	X28	Y28	Z28	X29	Y29	Z29	X30	Y30	Z30	X31	Y31	Z31	X32	Y32	Z32	X33	Y33	Z33	X34	Y34	Z34	X35	Y35	Z35	X36	Y36	Z36	X37	Y37	Z37	X38	Y38	Z38	X39	Y39	Z39	X40	Y40	Z40	X41	Y41	Z41	X42	Y42	Z42	X43	Y43	Z43	X44	Y44	Z44	X45	Y45	Z45	X46	Y46	Z46	X47	Y47	Z47	X48	Y48	Z48	X49	Y49	Z49	X50	Y50	Z50	X51	Y51	Z51	X52	Y52	Z52	X53	Y53	Z53	

85	0.84	-1423.717163085938	999.521240234375	-247.4815673828125	-1374.5185546875	1005.445495605469	-372.2391967773438	-1381.622680664062	1104.514282226562	-311.2173461914062	-1122.036010742188	1249.051513671875	-243.4866180419922	-1364.543334960938	1229.524658203125	-312.2720642089844	-1266.819213867188	1489.660278320312	-280.2466735839844	-1118.945556640625	1359.581298828125	-245.7786865234375	-1381.608032226562	1384.107788085938	-219.6817474365234	-1284.641479492188	1441.390380859375	-379.0331726074219	-1165.362548828125	1448.877197265625	-429.689453125	-1166.530395507812	1327.190795898438	-515.5589599609375	-1149.586303710938	1106.168823242188	-540.5057983398438	-1250.596069335938	1097.572387695312	-525.8147583007812	-1058.667236328125	889.7448120117188	-426.7568969726562	-1071.966552734375	849.7525024414062	-503.8419189453125	-1118.5908203125	1023.282165527344	-528.0065307617188	-1043.83251953125	732.6087036132812	-394.6510620117188	-1055.572998046875	794.9713134765625	-483.1596984863281	-1020.022888183594	819.1729736328125	-429.0270690917969	-1259.419799804688	1446.084594726562	-115.7599182128906	-1307.024780273438	1387.704833984375	-58.12120819091797	-1368.59716796875	1104.377563476562	-22.4808521270752	-1422.2158203125	1095.01806640625	-55.91286849975586	-1248.84619140625	877.3089599609375	-50.50603866577148	-1307.433715820312	858.7626342773438	6.231520652770996	-1365.891235351562	1047.863037109375	-16.2896842956543	-1244.838500976562	711.7415771484375	-44.90615081787109	-1222.312255859375	789.849609375	-22.51581764221191	-1288.01611328125	787.7150268554688	14.980299949646	-1168.171508789062	1649.052856445312	-184.6151123046875	-981.7814331054688	1633.864379882812	-275.1351318359375	-1034.908447265625	1635.585571289062	-141.1199340820312	-1100.646606445312	1643.660034179688	-335.7022094726562	-1214.727294921875	910.2191772460938	-454.6644897460938	-1345.439453125	922.69482421875	-92.20890045166016	-1247.734130859375	949.057373046875	-126.8017044067383	-1157.700805664062	933.347412109375	-386.3066711425781	-1242.838500976562	470.1281433105469	-385.3515930175781	-1219.599487304688	635.6592407226562	-419.9703674316406	-1425.391479492188	29.88218879699707	-423.3703002929688	-1356.233764648438	239.1188659667969	-417.5162963867188	-1239.596557617188	40.68576431274414	-312.8824462890625	-1318.102416992188	37.0806884765625	-297.5498657226562	-1303.868286132812	35.78816223144531	-402.354248046875	-1508.384765625	23.60685539245605	-388.9382934570312	-1168.869262695312	504.2519836425781	-95.2506103515625	-1268.427978515625	780.91796875	-80.14094543457031	-1421.365112304688	105.6789855957031	-192.5021057128906	-1208.712036132812	363.2055053710938	-121.9682006835938	-1203.807495117188	80.10943603515625	-154.8614959716797	-1247.88330078125	81.0316162109375	-216.3861083984375	-1305.502563476562	89.83350372314453	-129.4725494384766	-1453.349731445312	100.8528137207031	-263.4830322265625	
86	0.85	-1419.154418945312	1000.177062988281	-245.0821990966797	-1370.447021484375	1006.153747558594	-370.0072631835938	-1376.687255859375	1105.464233398438	-309.1545715332031	-1115.299438476562	1247.421997070312	-240.6941223144531	-1357.749267578125	1229.965087890625	-310.1922607421875	-1257.794555664062	1489.220092773438	-277.5198059082031	-1111.121704101562	1357.976928710938	-242.5764923095703	-1373.650756835938	1384.568969726562	-217.5814666748047	-1275.617309570312	1441.28369140625	-376.5138549804688	-1156.044677734375	1447.947509765625	-426.5116882324219	-1157.179321289062	1326.484008789062	-512.5409545898438	-1140.62939453125	1105.482177734375	-537.3199462890625	-1241.465942382812	1096.572998046875	-523.2572631835938	-1049.361938476562	890.4508666992188	-421.6786499023438	-1062.264038085938	849.613037109375	-498.354248046875	-1109.46142578125	1022.79736328125	-524.1934204101562	-1034.361328125	733.3591918945312	-388.0155944824219	-1045.697509765625	795.1491088867188	-477.14794921875	-1010.568359375	819.7531127929688	-422.9825439453125	-1251.448974609375	1445.403564453125	-113.0333251953125	-1299.96484375	1387.524658203125	-55.70552825927734	-1365.424438476562	1104.965454101562	-20.79715538024902	-1418.810302734375	1096.347534179688	-54.83931732177734	-1248.223022460938	876.5428466796875	-47.63068008422852	-1307.884765625	858.5755615234375	8.325933456420898	-1363.686767578125	1048.501098632812	-14.33173370361328	-1246.34716796875	711.4196166992188	-42.58828353881836	-1223.103271484375	788.8438720703125	-19.02072334289551	-1289.335693359375	787.333251953125	17.2672233581543	-1158.481689453125	1647.626586914062	-181.1907043457031	-972.239013671875	1631.618408203125	-271.8484802246094	-1025.280151367188	1633.445556640625	-137.7740478515625	-1091.128295898438	1642.11181640625	-332.3140258789062	-1210.797485351562	909.2681884765625	-452.833984375	-1340.00927734375	923.523193359375	-89.81242370605469	-1242.694458007812	948.9094848632812	-125.4666137695312	-1153.9814453125	932.6466064453125	-385.486572265625	-1242.673217773438	469.9691162109375	-385.4801025390625	-1218.539428710938	635.377197265625	-419.5873107910156	-1425.583862304688	29.72843933105469	-423.3992309570312	-1356.531494140625	239.2662963867188	-417.5750427246094	-1239.781005859375	40.98524856567383	-313.072509765625	-1317.941162109375	37.42250061035156	-297.8145446777344	-1303.887084960938	35.80971527099609	-402.4165344238281	-1508.616577148438	23.48572540283203	-389.0399475097656	-1156.609985351562	507.9586486816406	-91.21070098876953	-1261.64599609375	782.9345703125	-77.67366790771484	-1406.306030273438	107.2978591918945	-187.0320129394531	-1194.989013671875	366.4939575195312	-117.5166625976562	-1188.458251953125	83.137939453125	-150.2743530273438	-1232.73681640625	83.7364501953125	-211.6734008789062	-1290.069213867188	92.17845916748047	-124.5361862182617	-1438.550048828125	102.2721405029297	-257.8893737792969	
87	0.86	-1414.395751953125	1000.763977050781	-242.5336303710938	-1366.241333007812	1006.818420410156	-367.6288146972656	-1371.628295898438	1106.365112304688	-306.9046325683594	-1108.347045898438	1245.647338867188	-237.8441009521484	-1350.731079101562	1230.277221679688	-307.9797058105469	-1248.523071289062	1488.62548828125	-274.6808776855469	-1103.075561523438	1356.210327148438	-239.2710113525391	-1365.4384765625	1384.895874023438	-215.3749694824219	-1266.36865234375	1441.037841796875	-373.8807678222656	-1146.520385742188	1446.85498046875	-423.2239074707031	-1147.614379882812	1325.634521484375	-509.4100341796875	-1131.3828125	1104.640991210938	-533.9542236328125	-1232.248168945312	1095.547241210938	-520.6851196289062	-1039.85791015625	891.1057739257812	-416.2700805664062	-1052.22021484375	849.425048828125	-492.520263671875	-1100.047241210938	1022.206115722656	-520.1640014648438	-1024.709228515625	734.10791015625	-380.9824523925781	-1035.493530273438	795.2919921875	-470.7535400390625	-1000.932861328125	820.3141479492188	-416.5105590820312	-1243.228637695312	1444.561889648438	-110.1948928833008	-1292.655151367188	1387.208862304688	-53.20450592041016	-1362.134765625	1105.501220703125	-19.01981925964355	-1415.233154296875	1097.681396484375	-53.72895050048828	-1247.537719726562	875.761474609375	-44.54328536987305	-1308.293579101562	858.3561401367188	10.45915794372559	-1361.340209960938	1049.110107421875	-12.35058784484863	-1247.78076171875	711.1592407226562	-40.29301834106445	-1223.8623046875	787.805419921875	-15.38068771362305	-1290.657348632812	786.906494140625	19.5573673248291	-1148.617309570312	1646.020751953125	-177.6762542724609	-962.513671875	1629.284057617188	-268.4356384277344	-1015.502319335938	1631.173828125	-134.3134155273438	-1081.424194335938	1640.436889648438	-328.81787109375	-1206.943481445312	908.4723510742188	-451.0587768554688	-1334.329345703125	924.2281494140625	-87.28917694091797	-1237.4775390625	948.5822143554688	-124.0517807006836	-1150.150146484375	931.9190063476562	-384.6462097167969	-1242.515502929688	469.8051452636719	-385.696533203125	-1217.459228515625	635.091552734375	-419.2645874023438	-1425.779052734375	29.57797431945801	-423.4437866210938	-1356.870849609375	239.4185333251953	-417.6781005859375	-1239.941040039062	41.25403213500977	-313.3082885742188	-1317.72802734375	37.81157302856445	-298.107177734375	-1303.884643554688	35.80862808227539	-402.5122985839844	-1508.828491210938	23.38500022888184	-389.1205139160156	-1144.409790039062	511.6842041015625	-87.11387634277344	-1254.761840820312	784.82763671875	-75.15069580078125	-1390.083862304688	108.0334701538086	-180.8737182617188	-1180.992919921875	369.6690368652344	-112.780891418457	-1171.863037109375	86.06546020507812	-145.1292266845703	-1216.3857421875	86.12358093261719	-206.3437805175781	-1273.406005859375	94.11426544189453	-118.9633712768555	-1422.612060546875	102.6166229248047	-251.5782318115234	
88	0.87	-1409.437377929688	1001.238220214844	-239.8596038818359	-1361.874267578125	1007.411865234375	-365.1195983886719	-1366.419189453125	1107.192504882812	-304.463134765625	-1101.180419921875	1243.712158203125	-234.9390716552734	-1343.495849609375	1230.4453125	-305.6361389160156	-1239.00732421875	1487.859497070312	-271.7299194335938	-1094.812255859375	1354.26416015625	-235.8761596679688	-1356.973754882812	1385.072143554688	-213.0465545654297	-1256.906127929688	1440.630859375	-371.1344299316406	-1136.795776367188	1445.574829101562	-419.8319091796875	-1137.855346679688	1324.604614257812	-506.1716003417969	-1121.874389648438	1103.6171875	-530.415771484375	-1222.905151367188	1094.429565429688	-518.0772094726562	-1030.169555664062	891.669921875	-410.5489807128906	-1041.86083984375	849.1563720703125	-486.3650512695312	-1090.361450195312	1021.477600097656	-515.9269409179688	-1014.842468261719	734.8656005859375	-373.6189575195312	-1024.979125976562	795.3631591796875	-464.003173828125	-991.0789184570312	820.872802734375	-409.6710510253906	-1234.746337890625	1443.54150390625	-107.2439880371094	-1285.071166992188	1386.734252929688	-50.61035919189453	-1358.710693359375	1105.975341796875	-17.14537620544434	-1411.482543945312	1098.998046875	-52.53779602050781	-1246.765991210938	874.9569702148438	-41.23236083984375	-1308.6162109375	858.104248046875	12.64170742034912	-1358.8408203125	1049.67138671875	-10.33309268951416	-1249.132934570312	710.9552612304688	-38.00483703613281	-1224.551513671875	786.7186279296875	-11.61947917938232	-1291.939697265625	786.4341430664062	21.8707332611084	-1138.589965820312	1644.219604492188	-174.0781707763672	-952.6136474609375	1626.838012695312	-264.9082336425781	-1005.582336425781	1628.750366210938	-130.7487182617188	-1071.535766601562	1638.614013671875	-325.2263793945312	-1203.128540039062	907.8251953125	-449.3349609375	-1328.457885742188	924.7579345703125	-84.69429016113281	-1232.092163085938	948.0591430664062	-122.5562133789062	-1146.164184570312	931.1651611328125	-383.7352294921875	-1242.361328125	469.6356506347656	-385.9945983886719	-1216.330932617188	634.79736328125	-418.9914245605469	-1425.968383789062	29.43316459655762	-423.5030212402344	-1357.253051757812	239.5737457275391	-417.83447265625	-1240.067626953125	41.47968292236328	-313.5877685546875	-1317.558349609375	38.1454963684082	-298.3809814453125	-1303.865844726562	35.7841796875	-402.6519775390625	-1509.00927734375	23.30232238769531	-389.1759948730469	-1132.287963867188	515.37646484375	-82.93669891357422	-1247.800537109375	786.5536499023438	-72.5390625	-1372.762329101562	107.9201889038086	-174.0989990234375	-1166.77001953125	372.6928405761719	-107.7558898925781	-1154.118896484375	88.85177612304688	-139.4335479736328	-1198.90576171875	88.20204925537109	-200.4254913330078	-1255.617553710938	95.63822174072266	-112.7832412719727	-1405.577026367188	101.9434356689453	-244.6284637451172	
